# xmcd CD database file
# Copyright (C) 1997 Ti Kan
# 
# Track frame offsets:
#     150
#     19742
#     39047
#     55292
# 
# Disc length: 970 seconds
# 
# Revision: 1
# Processed by: cddbd v1.4b41PL1 Copyright (c) Steve Scherf et al.
# Submitted via: DiscPlay 4.0.4
# 
DISCID=2503c804
DTITLE=Skee-Lo - Top Of The Stairs
DYEAR=1900
DGENRE=
TTITLE0=Top Of The Stairs
TTITLE1=Top Of The Stairs (Soul Inside Mix)
TTITLE2=Top Of The Stairs (Street Radio Mix)
TTITLE3=I Wish (Stylus Flava Cut)
EXTD=
EXTT0=
EXTT1=
EXTT2=
EXTT3=
PLAYORDER=
